<mxfile host="app.diagrams.net" modified="2023-11-09T05:02:54.281Z" agent="Mozilla/5.0 (Windows NT 10.0; Win64; x64) AppleWebKit/537.36 (KHTML, like Gecko) Chrome/116.0.5845.837 YaBrowser/23.9.4.837 Yowser/2.5 Safari/537.36" etag="2vC54xKExCNpUd-OwhdU" version="22.1.0" type="google">
  <diagram name="Страница — 1" id="9CkCwleT6pNt-ay28d9U">
    <mxGraphModel dx="1050" dy="575" grid="1" gridSize="10" guides="1" tooltips="1" connect="1" arrows="1" fold="1" page="1" pageScale="1" pageWidth="827" pageHeight="1169" math="0" shadow="0">
      <root>
        <mxCell id="0" />
        <mxCell id="1" parent="0" />
        <mxCell id="RTAZbAmA8k4P0lMgyedc-2" value="" style="verticalAlign=top;align=center;spacingTop=8;spacingLeft=2;spacingRight=12;shape=cube;size=10;direction=south;fontStyle=4;html=1;whiteSpace=wrap;" parent="1" vertex="1">
          <mxGeometry x="170" y="230" width="150" height="90" as="geometry" />
        </mxCell>
        <mxCell id="RTAZbAmA8k4P0lMgyedc-3" value="&quot;Device&quot;&lt;br&gt;Website" style="text;html=1;strokeColor=none;fillColor=none;align=center;verticalAlign=middle;whiteSpace=wrap;rounded=0;" parent="1" vertex="1">
          <mxGeometry x="210" y="270" width="60" height="30" as="geometry" />
        </mxCell>
        <mxCell id="RTAZbAmA8k4P0lMgyedc-5" value="" style="verticalAlign=top;align=center;spacingTop=8;spacingLeft=2;spacingRight=12;shape=cube;size=10;direction=south;fontStyle=4;html=1;whiteSpace=wrap;" parent="1" vertex="1">
          <mxGeometry x="413.5" y="180" width="216.18" height="158" as="geometry" />
        </mxCell>
        <mxCell id="RTAZbAmA8k4P0lMgyedc-6" value="&quot;Device&quot;&lt;br&gt;Server" style="text;html=1;strokeColor=none;fillColor=none;align=center;verticalAlign=middle;whiteSpace=wrap;rounded=0;" parent="1" vertex="1">
          <mxGeometry x="490" y="210" width="66.18" height="30" as="geometry" />
        </mxCell>
        <mxCell id="RTAZbAmA8k4P0lMgyedc-9" value="&quot;deploy&quot;" style="endArrow=open;endSize=12;dashed=1;html=1;rounded=0;entryX=0;entryY=0;entryDx=90;entryDy=80;entryPerimeter=0;exitX=0.5;exitY=0;exitDx=0;exitDy=0;horizontal=0;" parent="1" edge="1">
          <mxGeometry x="-0.1168" y="13" width="160" relative="1" as="geometry">
            <mxPoint x="498.32" y="428" as="sourcePoint" />
            <mxPoint x="498.32" y="358" as="targetPoint" />
            <mxPoint as="offset" />
          </mxGeometry>
        </mxCell>
        <mxCell id="RTAZbAmA8k4P0lMgyedc-10" value="datamap.dll" style="html=1;whiteSpace=wrap;" parent="1" vertex="1">
          <mxGeometry x="438.82" y="428" width="135" height="40" as="geometry" />
        </mxCell>
        <mxCell id="RTAZbAmA8k4P0lMgyedc-11" value="" style="shape=note;whiteSpace=wrap;html=1;backgroundOutline=1;darkOpacity=0.05;size=11;" parent="1" vertex="1">
          <mxGeometry x="543.82" y="435.5" width="20" height="25" as="geometry" />
        </mxCell>
        <mxCell id="RTAZbAmA8k4P0lMgyedc-13" value="" style="endArrow=none;html=1;rounded=0;exitX=0;exitY=0;exitDx=40;exitDy=0;exitPerimeter=0;entryX=0.444;entryY=0.993;entryDx=0;entryDy=0;entryPerimeter=0;endFill=0;" parent="1" source="RTAZbAmA8k4P0lMgyedc-2" target="RTAZbAmA8k4P0lMgyedc-5" edge="1">
          <mxGeometry relative="1" as="geometry">
            <mxPoint x="420" y="350" as="sourcePoint" />
            <mxPoint x="580" y="350" as="targetPoint" />
          </mxGeometry>
        </mxCell>
        <mxCell id="RTAZbAmA8k4P0lMgyedc-14" value="&quot;http&quot;" style="edgeLabel;resizable=0;html=1;align=center;verticalAlign=middle;" parent="RTAZbAmA8k4P0lMgyedc-13" connectable="0" vertex="1">
          <mxGeometry relative="1" as="geometry">
            <mxPoint y="-10" as="offset" />
          </mxGeometry>
        </mxCell>
        <mxCell id="VUDXTAxP-mmvCS99utmP-1" value="Данная конфигурация подразумевает отдельный сервер, на котором расположен файл DM.dll. Доступ к серверу производится через протокол http с сайта доставки." style="text;html=1;strokeColor=none;fillColor=none;align=center;verticalAlign=middle;whiteSpace=wrap;rounded=0;" parent="1" vertex="1">
          <mxGeometry x="120" y="530" width="530" height="30" as="geometry" />
        </mxCell>
        <mxCell id="4OgGp2pZycuJFfjVhRzj-1" value="Execution environment&lt;br&gt;DB ()" style="verticalAlign=top;align=left;spacingTop=8;spacingLeft=2;spacingRight=12;shape=cube;size=10;direction=south;fontStyle=4;html=1;whiteSpace=wrap;" parent="1" vertex="1">
          <mxGeometry x="450" y="250" width="150" height="70" as="geometry" />
        </mxCell>
        <mxCell id="jyFkzA7MHTQDOboM85vF-1" value="*" style="text;html=1;align=center;verticalAlign=middle;resizable=0;points=[];autosize=1;strokeColor=none;fillColor=none;" vertex="1" parent="1">
          <mxGeometry x="325" y="268" width="30" height="30" as="geometry" />
        </mxCell>
      </root>
    </mxGraphModel>
  </diagram>
</mxfile>
